<svg width="13" height="10" viewBox="0 0 13 10" fill="none" xmlns="http://www.w3.org/2000/svg">
<path d="M4.92121 7.89884L0.353213 4.61884C0.245619 4.55526 0.156455 4.46473 0.0945155 4.35618C0.032576 4.24764 0 4.12482 0 3.99984C0 3.87486 0.032576 3.75205 0.0945155 3.6435C0.156455 3.53495 0.245619 3.44442 0.353213 3.38084L4.92121 0.0988408C5.0301 0.0347925 5.154 0.000695486 5.28033 1.05273e-05C5.40666 -0.000674432 5.53092 0.032077 5.6405 0.0949407C5.75008 0.157804 5.84108 0.248542 5.90426 0.357942C5.96743 0.467342 6.00054 0.59151 6.00021 0.717841V1.99884C7.50021 1.99884 12.0002 1.99884 13.0002 9.99884C10.5002 5.49884 6.00021 5.99884 6.00021 5.99884V7.27984C6.00021 7.83984 5.39421 8.17784 4.92121 7.89984V7.89884Z" fill="black" fill-opacity="0.5"/>
</svg>
